<?xml version="1.0" encoding="utf-8" ?>
<svg xmlns="http://www.w3.org/2000/svg" xmlns:xlink="http://www.w3.org/1999/xlink" width="512" height="512">
	<path d="M268.125 486.503L64.6812 486.595C65.5411 482.737 65.2938 478.216 65.2904 474.277L65.3031 138.901C73.7292 134.236 81.3101 128.034 89.2578 122.623L102.806 113.671C105.747 111.69 108.675 109.806 111.262 107.368C113.346 109.633 116.29 111.294 118.732 113.178L131.323 123.718C132.584 124.796 134.886 126.203 135.61 127.636L136.516 95.5946C138.197 94.1531 141.04 92.8637 142.996 91.6036L175.274 71.8473C178.886 69.5906 182.358 66.7803 186.282 65.1214L186.115 160.216C186.108 162.547 185.345 164.085 187.252 165.625L225.125 196.488C226.226 197.369 227.32 197.568 228.046 198.878L228.19 48.7165C228.172 46.3603 228.222 44.0056 227.663 41.701L227.591 41.4205C229.114 39.9032 231.073 38.7818 232.905 37.6831L255.106 22.5655L274.092 36.3383C277.38 38.736 277.718 37.4739 277.726 42.0049L277.736 190.661C277.735 195.388 277.965 200.298 277.516 205.001L277.475 205.415C278.569 204.103 280.329 202.915 281.629 201.743L310.202 176.625C313.746 173.526 317.181 170.389 320.995 167.625C322.65 166.426 322.056 166.098 322.02 164.11L322 71.9714C322.003 69.2394 321.807 66.3605 322.273 63.6681C323.315 63.9155 324.242 64.3001 325.172 64.8264L366.659 90.9525C368.263 91.9972 371.05 93.1167 372.286 94.4578L372.426 113.723C372.426 118.813 372.726 124.169 372.151 129.225L372.097 129.677C374.308 128.298 376.417 126.272 378.492 124.666L400.611 107.097C405.031 111.479 410.82 114.898 415.964 118.377L444.273 137.426C445.356 138.11 446.425 138.582 447.381 139.461L447.383 486.637L268.125 486.503ZM397.117 170.692L264.114 284.245C261.504 286.491 258.993 289.067 256.151 290.997C249.676 286.353 243.759 280.544 237.78 275.261L123.097 177.575C121.886 176.541 115.57 171.967 115.069 171.092L115.123 435.141L189.494 435.067L189.498 391.057C189.498 388.358 190.596 381.562 188.783 379.625L175.493 366.251C174.06 364.923 170.918 363.136 170.842 361.155L170.854 320.156L170.841 298.354C170.839 295.773 170.434 292.45 170.908 289.944L171.071 290.124C172.906 292.1 175.783 294.513 177.964 296.722L237.993 354.644C239.664 356.36 238.889 359.81 238.893 362L238.972 435.072L262.786 435.06C266.043 435.057 269.953 435.486 273.103 434.958L273.078 365.156C273.077 362.65 272.015 356.693 273.979 354.883L274.587 354.372C276.214 352.982 277.697 351.254 279.208 349.729L335.061 296.03C337.019 294.069 339.707 292.274 341.06 290.763L341.147 357.49C341.155 364.219 339.951 362.829 334.982 367.569L324.439 377.837C323.694 378.533 322.878 378.628 322.345 379.627C321.658 380.915 322.012 428.02 322.096 433.305L322.177 435.057L397.122 435.026C397.495 432.984 397.225 430.467 397.225 428.38L397.117 170.692Z"/>
</svg>
